{"asset":{"version":"2.0","generator":"Blockbench 4.9.3 glTF exporter"},"scenes":[{"nodes":[2],"name":"blockbench_export"}],"scene":0,"nodes":[{"rotation":[-0.7071067811865475,0,0,0.7071067811865476],"name":"2","mesh":0},{"name":"root","children":[0]},{"children":[1]}],"bufferViews":[{"buffer":0,"byteOffset":0,"byteLength":3456,"target":34962,"byteStride":12},{"buffer":0,"byteOffset":3456,"byteLength":3456,"target":34962,"byteStride":12},{"buffer":0,"byteOffset":6912,"byteLength":2304,"target":34962,"byteStride":8},{"buffer":0,"byteOffset":9216,"byteLength":792,"target":34963}],"buffers":[{"byteLength":10008,"uri":"data:application/octet-stream;base64,"}],"accessors":[{"bufferView":0,"componentType":5126,"count":288,"max":[0.09375,1.125,0.09375],"min":[-0.09375,-0.5,-0.09375],"type":"VEC3"},{"bufferView":1,"componentType":5126,"count":288,"max":[0.8944271802902222,1,1],"min":[-0.8944271802902222,-1,-1],"type":"VEC3"},{"bufferView":2,"componentType":5126,"count":288,"max":[0.65625,0.90625],"min":[0,0],"type":"VEC2"},{"bufferView":3,"componentType":5123,"count":396,"max":[287],"min":[0],"type":"SCALAR"}],"materials":[{"pbrMetallicRoughness":{"metallicFactor":0,"roughnessFactor":1,"baseColorTexture":{"index":0}},"alphaMode":"MASK","alphaCutoff":0.05,"doubleSided":true}],"textures":[{"sampler":0,"source":0}],"samplers":[{"magFilter":9728,"minFilter":9728,"wrapS":33071,"wrapT":33071}],"images":[{"mimeType":"image/png","uri":"data:image/png;base64,"}],"meshes":[{"primitives":[{"mode":4,"attributes":{"POSITION":0,"NORMAL":1,"TEXCOORD_0":2},"indices":3,"material":0}]}]}